<svg id="Layer_1" data-name="Layer 1" xmlns="http://www.w3.org/2000/svg" xmlns:xlink="http://www.w3.org/1999/xlink" viewBox="0 0 638.29 542.6"><defs><style>.cls-1,.cls-5{fill:none;}.cls-2,.cls-8{fill:#040234;}.cls-3{fill:#bc0a1c;}.cls-4{clip-path:url(#clip-path);}.cls-5{stroke:#009cde;stroke-miterlimit:10;stroke-width:2px;}.cls-6,.cls-7{fill:#fff;}.cls-7,.cls-8{fill-rule:evenodd;}</style><clipPath id="clip-path" transform="translate(-280.85 -127.6)"><path class="cls-1" d="M622.32,384.67c-55.22,12.25-107.84-22.22-118.81-77.51-5.33-26.84.55-51.82,14.64-75.06,7.73-12.7,17.08-24.13,27-35.1,7.32-8.09,14.83-16,22.08-24.17,15.82-17.77,18.29-21.76,27.39-43,6.82,18.43,20.36,31.53,34,44.54,13.18,12.61,27,24.59,39,38.38,14.24,16.37,25.4,34.39,29.58,56C707.66,322.93,673.67,373.28,622.32,384.67Z"/></clipPath></defs><path class="cls-2" d="M280.85,577.77a1.69,1.69,0,0,1,1.89-1.89H311c11.09,0,17,6,17,17.1v60.24c0,11.08-5.89,17-17,17H282.74a1.64,1.64,0,0,1-1.89-1.89Zm26.88,76.86c3.07,0,4.72-1.53,4.72-4.71V596.28c0-3.19-1.65-4.84-4.72-4.84H296.89v63.19Z" transform="translate(-280.85 -127.6)"/><path class="cls-2" d="M388.26,621.63c0,7.89-2.95,13.08-8.61,15.56l8.14,30.88c.35,1.42-.36,2.13-1.65,2.13H373.87a1.85,1.85,0,0,1-2-1.65L364,638.6h-8.13v29.71A1.74,1.74,0,0,1,354,670.2H341.69a1.74,1.74,0,0,1-1.89-1.89V577.77a1.74,1.74,0,0,1,1.89-1.89h29.59c11.08,0,17,5.9,17,17ZM367.51,623c3.06,0,4.71-1.65,4.71-4.72V596.16c0-3.07-1.65-4.72-4.71-4.72H355.84V623Z" transform="translate(-280.85 -127.6)"/><path class="cls-2" d="M444.85,575.88a2.36,2.36,0,0,1,2.35,2.36v75c0,11.08-5.89,17-17,17H417c-11.08,0-17-5.9-17-17v-75a2.36,2.36,0,0,1,2.36-2.36h11.31a2.36,2.36,0,0,1,2.36,2.36v71.68c0,3.18,1.65,4.71,4.72,4.71h6.13c3.06,0,4.71-1.53,4.71-4.71V578.24a2.36,2.36,0,0,1,2.36-2.36Z" transform="translate(-280.85 -127.6)"/><path class="cls-2" d="M459,577.77a1.73,1.73,0,0,1,1.88-1.89h28.3c11.08,0,17,5.9,17,17v28.77c0,11-5.89,17-17,17H475v29.71a1.69,1.69,0,0,1-1.89,1.89H460.88a1.73,1.73,0,0,1-1.88-1.89ZM485.4,623c3.19,0,4.72-1.77,4.72-4.72V596.16c0-3.07-1.53-4.72-4.72-4.72H475V623Z" transform="translate(-280.85 -127.6)"/><path class="cls-2" d="M556.38,670.2a1.82,1.82,0,0,1-1.89-1.65l-3.3-17.22h-21L527,668.55a1.8,1.8,0,0,1-1.88,1.65H512.52c-1.29,0-1.88-.71-1.53-2l19.57-90.66a1.83,1.83,0,0,1,2-1.65H549a1.84,1.84,0,0,1,2,1.65l19.57,90.66c.23,1.3-.24,2-1.65,2ZM540.7,596.51l-7.55,41.15h15.09Z" transform="translate(-280.85 -127.6)"/><path class="cls-2" d="M597.17,654.63h28.06a1.69,1.69,0,0,1,1.89,1.89v11.79a1.64,1.64,0,0,1-1.89,1.89H583a1.68,1.68,0,0,1-1.88-1.89V577.77a1.74,1.74,0,0,1,1.88-1.89h12.27a1.68,1.68,0,0,1,1.88,1.89Z" transform="translate(-280.85 -127.6)"/><path class="cls-2" d="M715.66,605.59a1.74,1.74,0,0,1-1.89,1.89H702a1.69,1.69,0,0,1-1.89-1.89v-9.43c0-3.07-1.65-4.72-4.71-4.72h-6.13c-3.18,0-4.72,1.65-4.72,4.72v53.76c0,3.18,1.65,4.71,4.72,4.71h6.13c3.06,0,4.71-1.53,4.71-4.71v-9.43A1.69,1.69,0,0,1,702,638.6h11.79a1.74,1.74,0,0,1,1.89,1.89v12.73c0,11.08-6,17-17,17h-13.2c-11.09,0-17.1-5.9-17.1-17V592.86c0-11.08,6-17,17.1-17h13.2c11,0,17,5.9,17,17Z" transform="translate(-280.85 -127.6)"/><path class="cls-2" d="M770.59,670.2a1.8,1.8,0,0,1-1.88-1.65l-3.3-17.22h-21l-3.18,17.22a1.82,1.82,0,0,1-1.89,1.65H726.74c-1.3,0-1.89-.71-1.53-2l19.57-90.66a1.83,1.83,0,0,1,2-1.65h16.39a1.83,1.83,0,0,1,2,1.65l19.57,90.66c.24,1.3-.23,2-1.65,2Zm-15.67-73.69-7.55,41.15h15.09Z" transform="translate(-280.85 -127.6)"/><path class="cls-2" d="M857.84,575.88a2.12,2.12,0,0,1,2.36,2.36v89.6a2.12,2.12,0,0,1-2.36,2.36h-11a2.12,2.12,0,0,1-2.36-2.36V614.79h-.83L832,668.07a2.45,2.45,0,0,1-2.59,2.13h-5.78a2.45,2.45,0,0,1-2.59-2.13l-11.67-53.28h-.83v53.05a2.12,2.12,0,0,1-2.36,2.36H795.36a2.12,2.12,0,0,1-2.36-2.36v-89.6a2.12,2.12,0,0,1,2.36-2.36h15.56a2.44,2.44,0,0,1,2.59,2.12l13.09,58.72L839.69,578a2.45,2.45,0,0,1,2.59-2.12Z" transform="translate(-280.85 -127.6)"/><path class="cls-2" d="M872,577.77a1.74,1.74,0,0,1,1.89-1.89h28.29c11.08,0,17,5.9,17,17v28.77c0,11-5.9,17-17,17H888v29.71a1.68,1.68,0,0,1-1.88,1.89H873.88a1.74,1.74,0,0,1-1.89-1.89ZM898.4,623c3.18,0,4.71-1.77,4.71-4.72V596.16c0-3.07-1.53-4.72-4.71-4.72H888V623Z" transform="translate(-280.85 -127.6)"/><rect class="cls-3" x="1.61" y="416.79" width="83.25" height="7.51"/><rect class="cls-3" x="548.48" y="416.79" width="83.25" height="7.51"/><path class="cls-3" d="M409.31,562.17h-4.52l-20.91-17.6a20.05,20.05,0,0,1-2.37-2.32c.18,1.84.28,3.3.28,4.36v15.56h-6V533.7h4.52l20,16.77a33,33,0,0,1,3.25,3.09c-.18-2.65-.27-4.28-.27-4.91V533.7h5.95Z" transform="translate(-280.85 -127.6)"/><path class="cls-3" d="M451.84,562.17h-29.4V533.7h29.13v4.86H429.06v6.34h13.13v4.86H429.06v7.06h22.78Z" transform="translate(-280.85 -127.6)"/><path class="cls-3" d="M504.36,533.7l-11,28.47h-4.47l-7.83-19.7-7.95,19.7h-4.57l-11-28.47h6.84l7.22,19.09,7.56-19.09h4.63l7.73,19.09,6.89-19.09Z" transform="translate(-280.85 -127.6)"/><path class="cls-3" d="M561.78,562.17h-29.4V533.7H561.5v4.86H539v6.34h13.13v4.86H539v7.06h22.78Z" transform="translate(-280.85 -127.6)"/><path class="cls-3" d="M606.07,562.17h-4.52l-20.91-17.6a20.05,20.05,0,0,1-2.37-2.32c.19,1.84.28,3.3.28,4.36v15.56h-6V533.7h4.52l20,16.77a31.9,31.9,0,0,1,3.25,3.09c-.18-2.65-.27-4.28-.27-4.91V533.7h6Z" transform="translate(-280.85 -127.6)"/><path class="cls-3" d="M652.36,555.44q0,4-1.52,5.35c-1,.92-2.86,1.38-5.55,1.38H625.66q-4,0-5.55-1.38t-1.51-5.35v-15c0-2.64.5-4.43,1.51-5.35s2.86-1.38,5.55-1.38h19.63c2.84,0,4.72.49,5.66,1.47s1.41,2.86,1.41,5.65L645.9,542v-3.2H625.21v18H645.9v-6.35H635.09v-4.85h17.27Z" transform="translate(-280.85 -127.6)"/><path class="cls-3" d="M693,562.17H665V533.7h6.62v23.12H693Z" transform="translate(-280.85 -127.6)"/><path class="cls-3" d="M733.61,562.17h-7.45l-3.42-6.24h-18l-3.31,6.24h-6.61l16.1-28.47h6.4ZM720,550.8l-6.12-11.58-6.34,11.58Z" transform="translate(-280.85 -127.6)"/><path class="cls-3" d="M774.81,562.17h-4.52l-20.9-17.6a19.42,19.42,0,0,1-2.38-2.32c.19,1.84.28,3.3.28,4.36v15.56h-6V533.7h4.53l20,16.77a31.9,31.9,0,0,1,3.25,3.09c-.18-2.65-.27-4.28-.27-4.91V533.7h5.95Z" transform="translate(-280.85 -127.6)"/><path class="cls-3" d="M822.53,547.77q0,8.28-6.29,12.19-3.59,2.2-11.69,2.21H787.94V533.7h18.32q7.4,0,11.58,3.31Q822.54,540.66,822.53,547.77Zm-6.84-.11q0-8.88-9.38-8.88H794.56v18h8.55q6.07,0,8.83-1.55Q815.69,553.18,815.69,547.66Z" transform="translate(-280.85 -127.6)"/><g class="cls-4"><line class="cls-5" x1="318.17" y1="141.09" x2="319.48" y2="0.01"/><line class="cls-5" x1="318.17" y1="141.09" x2="332.3" y2="0.71"/><line class="cls-5" x1="318.17" y1="141.09" x2="346.28" y2="2.83"/><line class="cls-5" x1="318.17" y1="141.09" x2="359.98" y2="6.34"/><line class="cls-5" x1="318.17" y1="141.09" x2="373.27" y2="11.2"/><line class="cls-5" x1="318.17" y1="141.09" x2="385.99" y2="17.37"/><line class="cls-5" x1="318.17" y1="141.09" x2="398.04" y2="24.79"/><line class="cls-5" x1="318.17" y1="141.09" x2="409.28" y2="33.37"/><line class="cls-5" x1="318.17" y1="141.09" x2="419.61" y2="43.03"/><line class="cls-5" x1="318.17" y1="141.09" x2="428.92" y2="53.68"/><line class="cls-5" x1="318.17" y1="141.09" x2="437.11" y2="65.21"/><line class="cls-5" x1="318.17" y1="141.09" x2="444.11" y2="77.5"/><line class="cls-5" x1="318.17" y1="141.09" x2="449.85" y2="90.43"/><line class="cls-5" x1="318.17" y1="141.09" x2="454.26" y2="103.86"/><line class="cls-5" x1="318.17" y1="141.09" x2="457.3" y2="117.68"/><line class="cls-5" x1="318.17" y1="141.09" x2="458.95" y2="131.72"/><line class="cls-5" x1="318.17" y1="141.09" x2="459.18" y2="145.87"/><line class="cls-5" x1="318.17" y1="141.09" x2="457.99" y2="159.96"/><line class="cls-5" x1="318.17" y1="141.09" x2="455.4" y2="173.86"/><line class="cls-5" x1="318.17" y1="141.09" x2="451.43" y2="187.44"/><line class="cls-5" x1="318.17" y1="141.09" x2="446.12" y2="200.55"/><line class="cls-5" x1="318.17" y1="141.09" x2="439.52" y2="213.06"/><line class="cls-5" x1="318.17" y1="141.09" x2="431.71" y2="224.85"/><line class="cls-5" x1="318.17" y1="141.09" x2="422.75" y2="235.79"/><line class="cls-5" x1="318.17" y1="141.09" x2="412.74" y2="245.79"/><line class="cls-5" x1="318.17" y1="141.09" x2="401.78" y2="254.73"/><line class="cls-5" x1="318.17" y1="141.09" x2="389.99" y2="262.53"/><line class="cls-5" x1="318.17" y1="141.09" x2="377.47" y2="269.11"/><line class="cls-5" x1="318.17" y1="141.09" x2="267.34" y2="272.7"/><line class="cls-5" x1="318.17" y1="141.09" x2="254.42" y2="266.95"/><line class="cls-5" x1="318.17" y1="141.09" x2="242.14" y2="259.93"/><line class="cls-5" x1="318.17" y1="141.09" x2="230.62" y2="251.72"/><line class="cls-5" x1="318.17" y1="141.09" x2="219.98" y2="242.4"/><line class="cls-5" x1="318.17" y1="141.09" x2="210.33" y2="232.06"/><line class="cls-5" x1="318.17" y1="141.09" x2="201.77" y2="220.8"/><line class="cls-5" x1="318.17" y1="141.09" x2="194.37" y2="208.75"/><line class="cls-5" x1="318.17" y1="141.09" x2="188.22" y2="196.01"/><line class="cls-5" x1="318.17" y1="141.09" x2="183.37" y2="182.73"/><line class="cls-5" x1="318.17" y1="141.09" x2="179.88" y2="169.02"/><line class="cls-5" x1="318.17" y1="141.09" x2="177.78" y2="155.03"/><line class="cls-5" x1="318.17" y1="141.09" x2="177.09" y2="140.91"/><line class="cls-5" x1="318.17" y1="141.09" x2="177.81" y2="126.78"/><line class="cls-5" x1="318.17" y1="141.09" x2="179.95" y2="112.8"/><line class="cls-5" x1="318.17" y1="141.09" x2="183.48" y2="99.1"/><line class="cls-5" x1="318.17" y1="141.09" x2="188.36" y2="85.83"/><line class="cls-5" x1="318.17" y1="141.09" x2="194.55" y2="73.11"/><line class="cls-5" x1="318.17" y1="141.09" x2="201.97" y2="61.07"/><line class="cls-5" x1="318.17" y1="141.09" x2="210.57" y2="49.84"/><line class="cls-5" x1="318.17" y1="141.09" x2="220.25" y2="39.52"/><line class="cls-5" x1="318.17" y1="141.09" x2="230.91" y2="30.23"/><line class="cls-5" x1="318.17" y1="141.09" x2="242.45" y2="22.05"/><line class="cls-5" x1="318.17" y1="141.09" x2="254.74" y2="15.07"/><line class="cls-5" x1="318.17" y1="141.09" x2="267.68" y2="9.35"/><line class="cls-5" x1="318.17" y1="141.09" x2="281.13" y2="4.95"/><line class="cls-5" x1="318.17" y1="141.09" x2="294.94" y2="1.93"/><line class="cls-5" x1="318.18" y1="141.09" x2="306.51" y2="0.49"/></g><rect class="cls-6" x="292.18" y="183.69" width="54" height="8"/><rect class="cls-6" x="311.18" y="193.69" width="24" height="62"/><rect class="cls-6" x="308.18" y="130.69" width="21" height="28"/><polygon class="cls-7" points="307.18 120.69 301.58 122.83 298.18 129.69 338.62 128.32 337.43 124.39 307.18 120.69"/><rect class="cls-6" x="286.18" y="163.69" width="65" height="12"/><path class="cls-8" d="M475.05,520.3H725c-37.36-40.71-212.8-40.44-249.9,0Z" transform="translate(-280.85 -127.6)"/><path class="cls-8" d="M565.93,302.06h68.14a5.1,5.1,0,0,1,5.09,5.09h0a5.1,5.1,0,0,1-5.09,5.09H565.93a5.1,5.1,0,0,1-5.09-5.09h0a5.1,5.1,0,0,1,5.09-5.09Z" transform="translate(-280.85 -127.6)"/><path class="cls-8" d="M576.22,254.52h47.56c1.17,0,2.13.62,2.13,1.39v3.85c0,.77-1,1.4-2.13,1.4H576.22c-1.17,0-2.13-.63-2.13-1.4v-3.85c0-.77,1-1.39,2.13-1.39Z" transform="translate(-280.85 -127.6)"/><path class="cls-8" d="M622,284.19v-.48a4.65,4.65,0,0,0-4.64-4.64H582.63a4.65,4.65,0,0,0-4.65,4.64v.48h-.32a4.66,4.66,0,0,0-4.64,4.64v12.85a4.66,4.66,0,0,0,4.64,4.64h44.68a4.65,4.65,0,0,0,4.64-4.64V288.83a4.65,4.65,0,0,0-4.64-4.64Z" transform="translate(-280.85 -127.6)"/><path class="cls-8" d="M600,239.72a19.74,19.74,0,0,1,18.38,12.51H581.62A19.74,19.74,0,0,1,600,239.72Z" transform="translate(-280.85 -127.6)"/><path class="cls-8" d="M627,316.14l6.49,176.77h-67L573,316.14Z" transform="translate(-280.85 -127.6)"/><path class="cls-7" d="M605.75,339.43v-8.8a5.75,5.75,0,1,0-11.5,0v8.8Z" transform="translate(-280.85 -127.6)"/><path class="cls-7" d="M594.25,374.57h11.5V355.9a5.75,5.75,0,0,0-11.5,0v18.67Z" transform="translate(-280.85 -127.6)"/><path class="cls-8" d="M584.2,258.77H591v24.38H584.2V258.77Zm24.84,0h6.76v24.38H609V258.77Z" transform="translate(-280.85 -127.6)"/><path class="cls-8" d="M566.25,290.25H580.7V292H568.13v14.6h-1.88V290.25Zm53,0h14.45v16.38h-1.88V292H619.3v-1.78Z" transform="translate(-280.85 -127.6)"/><polygon class="cls-8" points="317.81 102.69 320.48 102.69 320.48 118.69 317.81 118.69 317.81 102.69 317.81 102.69"/></svg>